<?xml version="1.0" standalone="no"?>
<!DOCTYPE svg PUBLIC "-//W3C//DTD SVG 20010904//EN"
 "http://www.w3.org/TR/2001/REC-SVG-20010904/DTD/svg10.dtd">
<svg version="1.0" xmlns="http://www.w3.org/2000/svg"
 width="920.000000pt" height="920.000000pt" viewBox="0 0 920.000000 920.000000"
 preserveAspectRatio="xMidYMid meet">
<metadata>
Created by potrace 1.14, written by Peter Selinger 2001-2017
</metadata>
<g transform="translate(0.000000,920.000000) scale(0.100000,-0.100000)"
fill="#000000" stroke="none">
<path d="M1989 9196 c-2 -3 -17 -7 -33 -10 -87 -16 -208 -108 -258 -196 -39
-69 -63 -161 -58 -225 1 -16 2 -36 1 -42 -2 -28 -3 -259 -1 -423 1 -47 1 -92
1 -100 0 -8 0 -57 0 -109 0 -80 -2 -93 -15 -88 -9 4 -16 3 -16 -1 0 -5 -15 -7
-32 -5 -18 2 -46 3 -63 3 -16 -1 -36 -1 -42 -1 -22 1 -46 1 -100 0 -28 -1 -56
2 -62 6 -6 3 -11 2 -11 -3 0 -5 -15 -7 -32 -5 -34 5 -86 6 -103 3 -25 -4 -115
-1 -125 5 -5 3 -10 3 -10 -2 0 -4 -21 -7 -46 -7 -92 3 -210 -51 -276 -126 -23
-25 -55 -74 -72 -110 l-31 -65 0 -3695 0 -3695 25 -55 c28 -64 31 -67 90 -130
49 -51 104 -85 175 -108 11 -4 1674 -8 3695 -9 3387 -2 3679 -1 3725 14 65 21
142 70 182 117 29 32 72 104 80 131 1 6 7 28 12 50 7 27 11 1249 10 3695 0
3360 -1 3659 -16 3705 -24 72 -73 145 -129 191 -79 64 -123 81 -232 89 -42 4
-83 8 -89 10 -7 3 -13 1 -13 -3 0 -9 -65 -6 -80 3 -6 3 -10 2 -10 -3 0 -4 -17
-7 -37 -5 -42 5 -93 6 -108 3 -23 -4 -117 -1 -122 4 -3 2 -15 1 -27 -4 -13 -4
-28 -5 -35 0 -7 4 -28 4 -47 0 -22 -5 -37 -4 -43 4 -6 7 -10 76 -10 162 0 82
0 158 0 169 0 32 1 229 1 240 1 127 -8 275 -18 316 -33 127 -152 252 -276 290
-48 15 -179 20 -224 8 -178 -46 -308 -200 -320 -377 -2 -35 -6 -67 -9 -72 -3
-5 -1 -11 4 -14 5 -3 6 -21 2 -38 -3 -18 -4 -51 -1 -73 3 -22 3 -49 -1 -61 -4
-11 -4 -26 1 -33 4 -7 4 -27 0 -45 -4 -17 -4 -40 0 -51 4 -11 4 -27 -1 -36 -4
-8 -4 -21 0 -28 5 -7 5 -28 1 -47 -4 -18 -6 -35 -3 -37 8 -9 9 -62 2 -89 -5
-17 -4 -28 2 -28 6 0 8 -4 4 -10 -8 -14 -10 -114 -2 -127 4 -6 4 -14 -1 -17
-13 -8 -97 -10 -109 -3 -7 4 -14 3 -18 -2 -3 -6 -15 -7 -27 -2 -12 4 -38 5
-59 1 -20 -4 -44 -3 -52 2 -9 5 -18 4 -22 -1 -3 -6 -15 -7 -27 -2 -12 4 -36 5
-53 1 -17 -4 -39 -4 -50 0 -11 4 -32 4 -46 0 -15 -4 -32 -4 -40 0 -7 5 -17 6
-22 3 -13 -8 -113 -7 -126 2 -6 3 -11 2 -11 -3 0 -5 -15 -7 -32 -5 -58 8 -100
9 -103 3 -5 -9 -66 -3 -76 7 -4 4 -8 31 -9 58 -1 43 -2 461 -1 520 1 91 -1
236 -4 262 -10 76 -76 196 -134 245 -41 34 -97 68 -141 84 -64 23 -187 27
-252 8 -161 -47 -283 -187 -303 -346 -3 -22 -8 -44 -11 -49 -3 -5 -1 -9 4 -9
4 0 6 -22 2 -50 -3 -27 -3 -55 1 -62 4 -6 4 -19 -1 -28 -5 -9 -5 -22 -1 -29 5
-7 5 -30 1 -51 -4 -21 -4 -44 1 -51 4 -7 4 -20 -1 -29 -5 -9 -5 -22 -1 -29 5
-7 5 -30 1 -51 -4 -21 -4 -44 1 -51 4 -7 4 -20 -1 -29 -5 -9 -5 -22 -1 -29 5
-7 5 -30 1 -51 -4 -21 -4 -44 1 -51 4 -7 4 -20 -1 -29 -5 -9 -5 -22 -1 -28 4
-7 5 -33 1 -58 -4 -24 -3 -47 2 -50 13 -8 -2 -26 -17 -20 -7 2 -16 2 -19 -1
-3 -4 -32 -5 -63 -4 -32 1 -67 2 -78 1 -11 -1 -26 -1 -32 -1 -21 1 -45 1 -100
0 -28 -1 -56 2 -62 6 -6 3 -11 2 -11 -3 0 -5 -15 -7 -32 -5 -34 5 -86 6 -103
3 -23 -4 -117 -1 -122 4 -3 2 -15 1 -27 -4 -13 -4 -29 -4 -36 0 -8 5 -22 4
-31 -1 -11 -5 -20 -5 -23 0 -3 5 -21 5 -41 1 -45 -10 -47 -4 -45 158 1 70 0
143 0 162 -1 19 -2 41 -1 48 1 6 1 18 2 25 1 16 0 122 -2 167 -1 19 -1 41 0
48 1 6 1 18 2 25 1 12 0 114 -1 152 -1 11 -1 27 -2 35 -1 68 -53 182 -109 241
-84 90 -169 129 -291 134 -127 6 -230 -34 -319 -126 -68 -70 -110 -162 -115
-254 -2 -27 -4 -52 -4 -55 -5 -14 -2 -82 3 -87 4 -3 2 -13 -3 -22 -5 -10 -5
-23 -1 -29 4 -7 5 -35 1 -62 -4 -27 -3 -55 1 -62 4 -6 4 -19 -1 -28 -5 -9 -5
-22 0 -30 4 -7 4 -24 0 -36 -6 -14 -5 -26 0 -29 5 -3 5 -18 0 -34 -4 -16 -6
-31 -4 -34 8 -7 9 -117 2 -117 -4 0 -3 -13 2 -30 5 -16 5 -32 1 -34 -6 -4 -6
-55 0 -93 5 -31 -5 -34 -96 -33 -76 0 -99 -1 -103 -5 -3 -2 -13 0 -23 5 -11 7
-20 7 -24 0 -3 -5 -15 -6 -27 -1 -12 4 -38 5 -59 1 -20 -4 -44 -3 -52 2 -9 5
-18 4 -22 -1 -3 -6 -15 -7 -27 -2 -12 4 -38 5 -59 1 -20 -4 -44 -3 -52 2 -9 5
-18 4 -22 -1 -3 -6 -15 -7 -27 -2 -12 4 -38 5 -59 1 -20 -4 -44 -3 -52 2 -9 5
-18 4 -22 -1 -3 -6 -15 -7 -27 -2 -12 4 -36 5 -53 1 -45 -10 -72 1 -70 28 1
13 -2 25 -7 28 -4 3 -4 13 2 23 5 10 7 21 3 24 -7 8 -10 97 -3 97 7 0 3 90 -4
97 -3 3 -1 13 4 23 5 10 7 20 3 23 -7 8 -10 97 -3 97 5 0 4 51 -3 118 -2 18 0
35 5 38 4 3 4 13 -2 23 -5 10 -7 21 -4 24 7 6 11 137 4 137 -3 0 -6 23 -7 51
-1 29 -5 59 -9 68 -4 9 -8 18 -8 21 -1 3 -12 28 -26 55 -43 90 -132 163 -255
210 -23 8 -179 18 -186 11z m169 -220 c39 -20 77 -58 99 -99 17 -30 18 -92 20
-864 2 -565 0 -841 -8 -860 -30 -82 -101 -140 -179 -148 -22 -2 -45 -7 -50
-10 -6 -3 -10 -1 -10 5 0 6 -4 9 -8 6 -5 -3 -22 2 -38 10 -16 9 -30 15 -32 14
-7 -4 -60 46 -76 72 -23 35 -46 122 -36 138 7 12 4 69 -4 78 -3 2 -1 14 4 26
4 13 5 29 0 36 -4 7 -4 24 0 39 4 14 4 35 0 46 -4 11 -4 29 0 40 4 11 4 32 0
46 -4 15 -4 32 0 39 5 7 5 23 0 34 -4 12 -4 30 0 42 5 11 5 27 0 34 -4 7 -4
24 0 39 4 14 4 35 0 46 -4 11 -4 29 0 40 4 11 4 31 0 45 -3 14 -4 36 0 50 4
14 3 37 -1 52 -4 15 -4 30 1 33 5 3 5 18 2 33 -4 15 -6 41 -5 57 6 56 5 124
-2 135 -3 5 -1 10 5 10 6 0 8 5 4 11 -7 13 -8 158 -1 166 3 2 1 18 -3 34 -5
16 -5 31 0 34 5 3 5 18 1 33 -5 15 -5 36 -1 47 4 11 4 32 -1 47 -4 15 -4 30 1
33 5 3 5 18 2 33 -4 15 -6 38 -5 52 1 14 4 45 6 70 7 76 46 134 117 174 37 21
55 25 105 22 34 -2 76 -11 93 -20z m1707 5 c90 -40 138 -122 136 -230 -1 -35
-3 -67 -6 -69 -2 -2 0 -15 5 -28 5 -13 6 -26 0 -29 -5 -3 -5 -18 0 -35 5 -17
5 -30 0 -30 -4 0 -4 -16 0 -35 4 -19 4 -35 0 -35 -4 0 -4 -17 -1 -37 4 -21 6
-47 5 -58 -2 -19 -3 -41 -5 -102 0 -16 -1 -58 -2 -96 -1 -37 1 -67 5 -67 4 0
3 -13 -2 -29 -4 -15 -4 -34 0 -41 5 -7 4 -23 0 -36 -5 -12 -7 -24 -4 -27 5 -5
6 -70 2 -145 -2 -23 0 -42 4 -42 4 0 3 -13 -2 -29 -4 -15 -4 -34 0 -41 5 -7 4
-23 0 -36 -5 -12 -6 -24 -4 -27 3 -3 5 -31 5 -63 -1 -64 -1 -87 -1 -106 1 -7
0 -41 -1 -74 -1 -34 1 -66 5 -72 3 -6 2 -13 -3 -16 -6 -4 -6 -18 -1 -35 4 -15
4 -34 0 -41 -5 -7 -4 -23 0 -36 5 -12 7 -24 4 -27 -3 -2 -7 -17 -10 -33 -15
-82 -114 -175 -176 -165 -5 0 -8 -4 -8 -10 0 -5 -4 -8 -9 -5 -5 3 -24 8 -42
11 -19 3 -41 6 -50 8 -22 4 -71 36 -91 61 -10 12 -22 26 -27 32 -23 28 -30
103 -30 304 0 118 0 223 0 233 0 86 0 470 0 480 0 19 0 459 0 482 -2 107 1
204 6 225 31 130 177 204 298 151z m1677 2 c7 -6 16 -11 19 -10 10 3 65 -46
83 -75 24 -36 46 -123 35 -139 -4 -7 -6 -17 -3 -21 4 -6 6 -238 3 -430 0 -26
2 -52 6 -58 3 -5 1 -10 -5 -10 -6 0 -8 -5 -5 -11 4 -6 7 -34 6 -62 -2 -95 0
-151 6 -160 4 -6 1 -7 -7 -2 -9 5 -11 4 -6 -4 6 -10 8 -112 5 -333 0 -26 2
-52 6 -58 3 -5 1 -10 -5 -10 -6 0 -8 -5 -5 -11 6 -9 7 -49 4 -119 0 -8 1 -57
2 -108 1 -51 -1 -95 -4 -98 -3 -3 -1 -18 3 -34 4 -16 5 -31 2 -35 -3 -3 -7
-15 -9 -27 -11 -73 -116 -169 -175 -159 -5 0 -8 -3 -8 -9 0 -6 -9 -6 -26 0
-14 6 -30 8 -35 5 -11 -8 -88 27 -115 51 -11 11 -28 31 -38 45 -34 54 -36 77
-35 362 0 9 0 82 0 162 0 80 0 152 0 160 0 8 0 80 0 160 0 80 0 152 0 160 0 8
0 80 0 160 0 80 0 152 0 160 0 8 0 79 -1 158 0 200 4 257 23 294 42 80 119
124 209 120 31 -2 62 -8 70 -14z m1736 -7 c69 -36 111 -99 119 -180 3 -28 7
-53 9 -55 2 -2 -1 -12 -7 -22 -7 -13 -6 -19 1 -19 7 0 8 -6 1 -18 -5 -10 -6
-24 -1 -32 4 -7 6 -18 4 -24 -8 -22 -10 -96 -3 -107 4 -7 3 -23 -1 -38 -4 -14
-4 -35 0 -46 4 -11 4 -27 -1 -36 -4 -8 -4 -21 1 -28 4 -8 5 -25 1 -40 -4 -14
-4 -46 -1 -71 3 -25 2 -57 -2 -72 -3 -16 -3 -28 1 -28 5 0 5 -15 2 -32 -4 -18
-4 -52 -1 -75 4 -23 3 -49 -2 -57 -6 -10 -5 -16 2 -16 7 0 8 -6 1 -18 -5 -10
-6 -24 -2 -31 5 -7 5 -27 2 -44 -4 -18 -4 -51 -1 -74 4 -23 3 -49 -2 -57 -6
-10 -5 -16 2 -16 7 0 8 -6 1 -18 -5 -10 -6 -24 -2 -31 5 -7 6 -27 2 -45 -3
-17 -5 -44 -4 -61 4 -38 4 -44 4 -80 -1 -48 -1 -81 -1 -112 0 -10 1 -40 1 -68
0 -27 1 -54 1 -60 1 -38 -13 -119 -26 -144 -39 -74 -105 -114 -191 -117 -62
-1 -109 15 -150 53 -25 22 -69 83 -60 83 3 0 3 6 -1 12 -5 7 -9 22 -10 33 -2
18 -4 170 -3 205 1 8 0 29 -1 45 -1 17 -1 82 -1 145 0 63 0 140 0 170 0 30 0
60 1 65 2 6 2 14 1 19 -2 7 -1 175 1 231 0 6 -1 57 -2 115 -1 58 -1 110 0 115
1 6 2 13 2 16 -1 4 -1 53 -1 110 0 124 0 135 -1 269 0 150 10 189 67 246 61
61 175 80 251 40z m-4613 -3021 c142 -42 338 -181 493 -348 24 -26 46 -47 50
-48 50 -5 110 -31 143 -61 20 -19 32 -22 57 -17 18 4 35 3 37 -1 3 -5 18 -5
34 0 15 4 34 4 41 0 7 -4 25 -4 40 0 15 4 33 4 40 0 7 -4 25 -4 40 0 15 4 33
4 40 0 6 -4 27 -4 46 0 19 4 36 4 39 0 3 -5 18 -5 33 -1 15 5 36 6 47 5 22 -4
24 -4 134 -5 41 0 78 -2 82 -5 4 -2 10 0 14 6 4 7 12 7 26 0 12 -7 19 -7 19
-1 0 6 11 7 28 2 15 -4 38 -5 52 -1 14 3 44 3 68 0 23 -4 45 -3 47 1 3 4 18 4
34 -1 15 -4 33 -5 39 -1 6 3 45 4 87 1 42 -3 79 -2 82 2 2 5 13 3 24 -2 12 -7
19 -7 19 -1 0 6 11 7 28 2 15 -4 38 -5 52 -1 14 3 44 3 68 0 23 -4 45 -3 47 1
3 4 18 4 34 -1 15 -4 33 -5 39 -1 6 3 45 4 87 1 42 -3 79 -2 82 2 2 5 13 3 24
-2 12 -7 19 -7 19 -1 0 6 11 7 28 2 15 -4 38 -5 52 -1 14 3 44 3 68 0 23 -4
45 -3 47 1 3 4 18 4 34 -1 15 -4 33 -5 39 -1 6 3 45 4 87 1 42 -3 79 -2 82 2
2 5 13 3 24 -2 12 -7 19 -7 19 -1 0 6 11 7 28 2 15 -4 38 -5 52 -1 14 3 44 3
68 0 23 -4 45 -3 47 1 3 4 18 4 34 -1 15 -4 33 -5 39 -1 6 3 45 4 87 1 42 -3
79 -2 82 2 2 5 13 3 24 -2 12 -7 19 -7 19 -1 0 6 11 7 28 2 15 -4 38 -5 52 -1
14 3 44 3 68 0 23 -4 45 -3 48 1 2 5 10 6 17 4 7 -2 43 -6 80 -9 107 -8 180
-66 206 -163 11 -42 10 -680 -1 -699 -4 -5 -10 -37 -13 -69 -8 -68 -60 -278
-77 -309 -6 -12 -11 -22 -10 -23 1 -2 -5 -18 -13 -37 -8 -20 -15 -38 -15 -40
0 -21 -132 -269 -157 -294 -7 -7 -13 -17 -13 -21 0 -4 -8 -17 -17 -29 -10 -11
-27 -33 -38 -48 -62 -86 -162 -193 -265 -285 -20 -17 -130 -100 -195 -147
-104 -73 -425 -213 -545 -236 -14 -2 -50 -10 -80 -16 -30 -6 -66 -13 -80 -15
-227 -28 -435 -25 -604 10 -39 8 -80 16 -91 18 -11 1 -25 5 -30 9 -6 3 -28 9
-50 13 -22 4 -44 10 -50 14 -5 3 -12 6 -15 6 -31 1 -240 95 -335 150 -67 38
-195 125 -221 150 -12 11 -36 31 -54 44 -73 56 -226 226 -310 344 -18 26 -36
47 -39 47 -4 0 -39 -9 -78 -20 -58 -16 -155 -31 -208 -32 -22 -1 -152 12 -180
17 -50 9 -157 47 -210 73 -61 31 -165 102 -165 113 0 5 -5 9 -10 9 -16 0 -101
95 -152 171 -44 66 -107 209 -113 255 -1 11 -5 25 -8 31 -3 5 -8 44 -11 86 -3
42 -8 81 -11 87 -3 5 -3 10 2 10 4 0 8 21 8 48 1 61 13 128 36 201 13 43 78
181 93 198 6 7 33 41 61 76 52 67 152 153 220 190 22 12 42 25 43 30 2 4 11 7
21 7 9 0 21 4 26 9 14 13 177 60 220 63 19 1 35 5 35 8 0 19 -151 127 -187
133 -10 1 -23 6 -29 9 -9 6 -112 23 -124 21 -3 0 -30 -3 -60 -6 -62 -7 -128
-28 -178 -57 -18 -11 -35 -20 -38 -20 -2 0 -16 26 -30 58 -15 31 -40 86 -56
122 -47 102 -49 110 -36 124 34 32 170 87 258 103 13 2 26 6 28 7 11 11 226
-4 277 -19z m4438 -3000 c8 -18 -12 -111 -34 -163 -55 -129 -151 -218 -287
-263 l-67 -23 -2005 1 c-1103 0 -2014 2 -2025 4 -11 3 -24 7 -30 10 -5 4 -23
9 -38 13 -88 21 -216 132 -257 222 -37 79 -42 98 -47 155 l-5 56 2396 0 c1806
0 2396 -3 2399 -12z"/>
<path d="M2929 5155 c-3 -2 -30 -6 -60 -8 -179 -12 -354 -142 -423 -317 -10
-25 -20 -56 -23 -69 -2 -14 -6 -28 -8 -31 -6 -10 -7 -142 -1 -170 3 -14 9 -38
13 -55 4 -16 7 -32 8 -35 0 -3 16 -34 34 -69 82 -160 261 -271 441 -272 71 0
141 9 152 20 6 5 -11 66 -39 141 -3 8 -8 24 -10 35 -6 27 -9 37 -16 55 -7 19
-24 102 -33 160 -3 25 -8 54 -11 65 -2 11 -6 67 -8 125 -2 58 -5 107 -6 110
-1 3 0 10 1 15 6 25 6 52 -1 71 -4 12 -5 24 -2 27 6 7 6 197 0 203 -2 2 -6 2
-8 -1z"/>
<path d="M3565 5098 c-104 -9 -118 -12 -171 -43 -83 -49 -124 -150 -124 -310
-1 -76 1 -90 25 -174 25 -86 97 -224 139 -267 7 -6 23 -25 37 -41 37 -44 134
-120 188 -147 104 -53 177 -70 306 -69 114 0 136 2 230 18 54 10 73 15 155 40
3 1 14 5 25 10 144 56 195 75 208 75 9 0 18 4 21 9 3 4 47 9 98 9 87 0 143
-12 238 -51 37 -16 187 -69 205 -72 290 -63 468 -53 625 33 93 51 163 112 245
213 51 62 144 277 130 300 -3 4 -1 10 4 13 5 4 8 14 7 24 -2 9 0 29 5 44 4 14
5 29 2 32 -3 3 -7 30 -8 60 -8 157 -76 257 -195 283 -94 20 -322 20 -515 -2
-16 -2 -59 -6 -95 -9 -36 -4 -76 -8 -90 -11 -14 -2 -47 -7 -75 -10 -27 -3 -70
-8 -95 -11 -25 -3 -61 -7 -80 -9 -19 -1 -66 -7 -105 -11 -38 -4 -126 -7 -195
-7 -113 0 -177 4 -310 20 -25 3 -62 6 -82 7 -21 0 -38 3 -38 6 0 3 -12 5 -27
6 -26 1 -71 6 -183 20 -83 10 -114 13 -225 19 -171 10 -195 10 -280 3z m300
-123 c38 -4 93 -8 120 -11 28 -2 68 -6 90 -9 22 -3 63 -7 90 -10 28 -2 61 -6
75 -9 14 -2 54 -7 90 -11 36 -4 79 -8 95 -10 182 -23 395 -23 580 0 17 2 55 6
85 9 30 4 72 8 93 11 20 3 54 7 75 10 35 5 108 13 182 20 181 19 384 24 458
13 108 -17 133 -56 137 -208 1 -68 -3 -122 -12 -152 -15 -52 -27 -62 -29 -25
-3 50 -60 171 -98 208 -21 21 -41 38 -45 37 -3 -1 -15 3 -26 8 -24 11 -220 11
-290 0 -42 -6 -208 -37 -280 -52 -11 -2 -33 -7 -50 -10 -16 -3 -48 -9 -70 -14
-47 -11 -100 -20 -137 -25 -15 -2 -35 -6 -45 -9 -10 -3 -42 -8 -72 -11 -30 -3
-58 -8 -63 -11 -18 -12 58 -101 109 -127 20 -11 48 -14 93 -11 144 11 133 13
135 -26 1 -50 27 -101 69 -138 20 -17 40 -32 44 -32 4 -1 27 -5 51 -9 78 -16
161 24 204 97 24 41 27 50 31 107 2 22 4 43 5 47 0 4 11 5 24 3 12 -2 49 -6
82 -9 33 -3 81 -12 108 -20 26 -8 47 -12 47 -10 0 2 36 -15 80 -38 l79 -41
-21 -41 c-51 -101 -149 -194 -262 -250 -69 -35 -94 -42 -186 -52 -54 -7 -49
-7 -135 0 -68 6 -85 9 -135 21 -14 3 -38 9 -55 12 -16 3 -38 9 -48 15 -10 5
-26 11 -35 13 -9 2 -42 13 -72 25 -30 12 -59 22 -65 23 -5 2 -16 7 -24 12 -8
4 -40 15 -70 23 -122 31 -266 24 -366 -17 -16 -7 -34 -14 -40 -15 -5 -2 -21
-8 -35 -13 -105 -43 -227 -80 -290 -88 -52 -7 -145 -17 -155 -17 -15 0 -128
12 -145 16 -42 9 -171 70 -204 96 -47 37 -113 110 -148 165 -37 56 -38 60 -21
73 25 20 155 80 184 86 13 2 45 9 71 15 27 6 51 11 55 10 5 -1 11 0 16 1 18 5
78 3 84 -3 3 -4 7 -24 8 -45 4 -91 60 -167 145 -195 122 -41 245 43 255 173 2
32 5 35 31 33 16 -1 60 -4 97 -7 92 -6 135 16 195 100 25 37 20 41 -53 50 -22
3 -53 7 -70 10 -16 3 -41 7 -55 9 -14 2 -41 7 -60 11 -19 4 -39 8 -45 8 -5 1
-35 7 -65 14 -30 7 -66 14 -80 17 -14 3 -47 9 -75 15 -183 36 -282 48 -380 46
-108 -2 -141 -13 -191 -63 -34 -34 -92 -167 -98 -225 -2 -20 -15 -15 -21 9 -4
15 -9 37 -13 48 -7 27 -8 225 0 250 4 11 7 24 7 28 2 15 62 67 79 68 36 3 74
8 78 11 5 6 220 0 299 -7z m325 -380 c16 -19 1 -63 -23 -72 -35 -11 -41 -10
-64 11 -26 22 -27 25 -14 58 8 21 14 23 50 20 22 -2 45 -10 51 -17z m1154 14
c3 -2 7 -17 10 -32 10 -58 -84 -85 -105 -29 -15 38 -3 60 34 64 39 4 55 3 61
-3z"/>
</g>
</svg>
